<svg xmlns="http://www.w3.org/2000/svg" width="123" height="126" viewBox="0 0 123 126">
  <g id="icone-planilha" transform="translate(-687 -28.398)">
    <ellipse id="fundo" cx="61.5" cy="63" rx="61.5" ry="63" transform="translate(687 28.398)" fill="#f8fbee"/>
    <g id="planilha" transform="translate(717 60.398)">
      <path id="Path_548" data-name="Path 548" d="M13.862.008h-7.9A5.97,5.97,0,0,0,0,5.972v7.894a5.97,5.97,0,0,0,5.964,5.964h7.9a5.97,5.97,0,0,0,5.964-5.964V5.972A5.97,5.97,0,0,0,13.862.008ZM15.85,13.866a1.991,1.991,0,0,1-1.988,1.988h-7.9a1.991,1.991,0,0,1-1.988-1.988V5.972A1.991,1.991,0,0,1,5.964,3.984h7.9A1.991,1.991,0,0,1,15.85,5.972Z" transform="translate(0 0)" fill="#a43e00"/>
      <path id="Path_549" data-name="Path 549" d="M57.787,0h-29.8a5.97,5.97,0,0,0-5.964,5.964v7.9a5.97,5.97,0,0,0,5.964,5.964h29.8a5.97,5.97,0,0,0,5.964-5.964v-7.9A5.97,5.97,0,0,0,57.787,0Zm1.988,13.86a1.99,1.99,0,0,1-1.988,1.988h-29.8a1.99,1.99,0,0,1-1.988-1.988v-7.9a1.99,1.99,0,0,1,1.988-1.988h29.8a1.99,1.99,0,0,1,1.988,1.988Z" transform="translate(-0.131)" fill="#a43e00"/>
      <path id="Path_550" data-name="Path 550" d="M13.862,22.037h-7.9A5.97,5.97,0,0,0,0,28V35.9A5.97,5.97,0,0,0,5.964,41.86h7.9A5.97,5.97,0,0,0,19.827,35.9V28A5.971,5.971,0,0,0,13.862,22.037ZM15.85,35.9a1.991,1.991,0,0,1-1.988,1.988h-7.9A1.991,1.991,0,0,1,3.976,35.9V28a1.991,1.991,0,0,1,1.988-1.988h7.9A1.991,1.991,0,0,1,15.85,28Z" transform="translate(0 -0.131)" fill="#a43e00"/>
      <path id="Path_551" data-name="Path 551" d="M57.787,22.029h-29.8a5.97,5.97,0,0,0-5.964,5.964v7.9a5.97,5.97,0,0,0,5.964,5.964h29.8a5.97,5.97,0,0,0,5.964-5.964v-7.9A5.971,5.971,0,0,0,57.787,22.029ZM59.775,35.89a1.99,1.99,0,0,1-1.988,1.988h-29.8a1.99,1.99,0,0,1-1.988-1.988v-7.9a1.99,1.99,0,0,1,1.988-1.988h29.8a1.99,1.99,0,0,1,1.988,1.988Z" transform="translate(-0.131 -0.131)" fill="#a43e00"/>
      <path id="Path_552" data-name="Path 552" d="M13.862,44.057h-7.9A5.97,5.97,0,0,0,0,50.021v7.9a5.97,5.97,0,0,0,5.964,5.964h7.9a5.97,5.97,0,0,0,5.964-5.964v-7.9A5.97,5.97,0,0,0,13.862,44.057Zm1.988,13.86a1.991,1.991,0,0,1-1.988,1.988h-7.9a1.991,1.991,0,0,1-1.988-1.988v-7.9a1.991,1.991,0,0,1,1.988-1.988h7.9a1.991,1.991,0,0,1,1.988,1.988Z" transform="translate(0 -0.261)" fill="#a43e00"/>
      <path id="Path_553" data-name="Path 553" d="M57.787,44.049h-29.8a5.97,5.97,0,0,0-5.964,5.964v7.9a5.97,5.97,0,0,0,5.964,5.964h29.8a5.97,5.97,0,0,0,5.964-5.964v-7.9A5.97,5.97,0,0,0,57.787,44.049Zm1.988,13.86A1.99,1.99,0,0,1,57.787,59.9h-29.8a1.99,1.99,0,0,1-1.988-1.988v-7.9a1.99,1.99,0,0,1,1.988-1.988h29.8a1.99,1.99,0,0,1,1.988,1.988Z" transform="translate(-0.131 -0.261)" fill="#a43e00"/>
    </g>
  </g>
</svg>
