<svg id="icone-universidade" xmlns="http://www.w3.org/2000/svg" width="152.014" height="150.9" viewBox="0 0 152.014 150.9">
  <path id="Path_660" data-name="Path 660" d="M324.584,427.237H308.625V467.46h20.1V431.378A4.145,4.145,0,0,0,324.584,427.237Z" transform="translate(-231.006 -319.787)" fill="none"/>
  <path id="Path_661" data-name="Path 661" d="M215.876,431.378V467.46h20.1V427.238H220.014A4.145,4.145,0,0,0,215.876,431.378Z" transform="translate(-161.583 -319.787)" fill="none"/>
  <path id="Path_662" data-name="Path 662" d="M341.592,117.551a1.613,1.613,0,1,1,3.226,0V137.57h4.91V117.162a4.145,4.145,0,0,0-4.132-4.142h-4.782a4.147,4.147,0,0,0-4.13,4.13v20.42h4.908Z" transform="translate(-252.007 -84.595)" fill="none"/>
  <path id="Path_663" data-name="Path 663" d="M12.829,83.655V105.4H48.642V70.5H25.99A13.176,13.176,0,0,0,12.829,83.655Zm22.99-5.689a7.374,7.374,0,0,1,7.366,7.366V99.221a1.613,1.613,0,0,1-1.613,1.612H25.3a1.613,1.613,0,0,1-1.613-1.612V85.332a7.372,7.372,0,0,1,7.365-7.366Z" transform="translate(-9.602 -52.766)" fill="none"/>
  <path id="Path_664" data-name="Path 664" d="M341.592,266.326a1.613,1.613,0,0,1,3.226,0v20.017h4.91V265.935a4.147,4.147,0,0,0-4.132-4.142h-4.782a4.149,4.149,0,0,0-4.13,4.127v20.423h4.908Z" transform="translate(-252.007 -195.952)" fill="none"/>
  <path id="Path_665" data-name="Path 665" d="M220.782,117.551a1.613,1.613,0,1,1,3.226,0V137.57h4.908V117.151a4.146,4.146,0,0,0-4.13-4.132H220a4.147,4.147,0,0,0-4.13,4.142V137.57h4.911Z" transform="translate(-161.579 -84.595)" fill="none"/>
  <path id="Path_666" data-name="Path 666" d="M220.785,266.326a1.613,1.613,0,0,1,3.226,0v20.017h4.908V265.927a4.146,4.146,0,0,0-4.13-4.134H220a4.149,4.149,0,0,0-4.129,4.142v20.408h4.91Z" transform="translate(-161.583 -195.952)" fill="none"/>
  <path id="Path_667" data-name="Path 667" d="M73.739,376.156a1.613,1.613,0,1,1,3.226,0v12.272h4.911v-12.28a4.145,4.145,0,0,0-4.127-4.134H72.959a4.143,4.143,0,0,0-4.127,4.138v12.276h4.907Z" transform="translate(-51.521 -278.452)" fill="none"/>
  <path id="Path_668" data-name="Path 668" d="M73.739,265.931a1.613,1.613,0,0,1,3.226,0V278.2h4.911v-12.28a4.143,4.143,0,0,0-4.129-4.136H72.961a4.147,4.147,0,0,0-4.129,4.139V278.2h4.907Z" transform="translate(-51.521 -195.948)" fill="none"/>
  <path id="Path_669" data-name="Path 669" d="M35.268,313.944h30.17v-91.8H35.268Zm5.215-77.683a7.376,7.376,0,0,1,7.365-7.37h4.767a7.378,7.378,0,0,1,7.366,7.37v13.88a1.614,1.614,0,0,1-1.613,1.614H42.1a1.614,1.614,0,0,1-1.613-1.614Zm0,27.719a7.371,7.371,0,0,1,7.365-7.366h4.767a7.372,7.372,0,0,1,7.366,7.366v13.878a1.613,1.613,0,0,1-1.613,1.616H42.1a1.613,1.613,0,0,1-1.613-1.616Zm0,27.72a7.372,7.372,0,0,1,7.365-7.367h4.767a7.374,7.374,0,0,1,7.366,7.367v13.886a1.614,1.614,0,0,1-1.613,1.613H42.1a1.615,1.615,0,0,1-1.613-1.613Z" transform="translate(-26.398 -166.272)" fill="none"/>
  <path id="Path_670" data-name="Path 670" d="M73.739,117.162a1.613,1.613,0,1,1,3.226,0v12.273h4.911V117.153a4.145,4.145,0,0,0-4.129-4.133H72.961a4.147,4.147,0,0,0-4.129,4.139v12.276h4.907Z" transform="translate(-51.521 -84.595)" fill="none"/>
  <path id="Path_671" data-name="Path 671" d="M73.739,486.376a1.613,1.613,0,0,1,3.226,0v12.272h4.911V486.37a4.146,4.146,0,0,0-4.127-4.136H72.959a4.143,4.143,0,0,0-4.127,4.137v12.277h4.907Z" transform="translate(-51.521 -360.952)" fill="none"/>
  <path id="Path_672" data-name="Path 672" d="M471.848,70.5H449.192V105.4h35.815V83.655A13.173,13.173,0,0,0,471.848,70.5ZM473.9,99.221a1.613,1.613,0,0,1-1.612,1.612H456.011a1.612,1.612,0,0,1-1.612-1.612V85.332a7.372,7.372,0,0,1,7.366-7.368h4.767a7.372,7.372,0,0,1,7.369,7.368Z" transform="translate(-336.22 -52.766)" fill="none"/>
  <path id="Path_673" data-name="Path 673" d="M487.628,486.376a1.615,1.615,0,1,1,3.228,0v12.272h4.91V486.371a4.145,4.145,0,0,0-4.127-4.137h-4.79a4.145,4.145,0,0,0-4.129,4.137v12.277h4.908Z" transform="translate(-361.316 -360.952)" fill="none"/>
  <path id="Path_674" data-name="Path 674" d="M449.192,313.944h30.164v-91.8H449.192Zm5.207-77.683a7.376,7.376,0,0,1,7.366-7.37h4.767a7.376,7.376,0,0,1,7.369,7.363v13.886a1.614,1.614,0,0,1-1.612,1.614H456.011a1.613,1.613,0,0,1-1.612-1.614Zm0,27.719a7.371,7.371,0,0,1,7.366-7.366h4.767a7.371,7.371,0,0,1,7.369,7.361v13.888a1.612,1.612,0,0,1-1.612,1.612H456.011a1.612,1.612,0,0,1-1.612-1.612Zm0,27.72a7.372,7.372,0,0,1,7.366-7.367h4.767A7.372,7.372,0,0,1,473.9,291.7v13.886a1.613,1.613,0,0,1-1.612,1.613H456.011a1.613,1.613,0,0,1-1.612-1.613V291.7Z" transform="translate(-336.22 -166.272)" fill="none"/>
  <path id="Path_675" data-name="Path 675" d="M491.635,113.02H486.85a4.146,4.146,0,0,0-4.13,4.133v12.282h4.908V117.162a1.615,1.615,0,0,1,3.228,0v12.273h4.91V117.159A4.146,4.146,0,0,0,491.635,113.02Z" transform="translate(-361.316 -84.595)" fill="none"/>
  <path id="Path_676" data-name="Path 676" d="M487.628,265.931a1.614,1.614,0,0,1,3.228,0V278.2h4.91V265.927a4.147,4.147,0,0,0-4.13-4.139H486.85a4.147,4.147,0,0,0-4.13,4.139V278.2h4.908Z" transform="translate(-361.316 -195.948)" fill="none"/>
  <path id="Path_677" data-name="Path 677" d="M487.628,376.156a1.615,1.615,0,0,1,3.228,0v12.272h4.91V376.153a4.145,4.145,0,0,0-4.127-4.139h-4.79a4.145,4.145,0,0,0-4.129,4.139v12.274h4.908Z" transform="translate(-361.316 -278.452)" fill="none"/>
  <path id="Path_678" data-name="Path 678" d="M211.818,33.9H145.761l-8.443,5.975h82.941Z" transform="translate(-102.783 -25.378)" fill="none"/>
  <path id="Path_679" data-name="Path 679" d="M229.459,12.823H178.374l-7.487,5.3h66.057Z" transform="translate(-127.909 -9.598)" fill="#e9bda0"/>
  <path id="Path_680" data-name="Path 680" d="M135.628,14.5h-12.57l-8.814-6.242L103,.3a1.624,1.624,0,0,0-.939-.3H49.951a1.624,1.624,0,0,0-.933.3L37.449,8.488,28.956,14.5H16.388A16.406,16.406,0,0,0,0,30.89V54.252a1.616,1.616,0,0,0,1.613,1.616H5.64v93.417A1.613,1.613,0,0,0,7.253,150.9h137.5a1.611,1.611,0,0,0,1.612-1.614V55.868H150.4a1.616,1.616,0,0,0,1.614-1.616V30.89A16.406,16.406,0,0,0,135.628,14.5ZM39.04,147.672H8.87v-91.8H39.04Zm0-95.034H3.226V30.89A13.176,13.176,0,0,1,16.388,17.73H39.04Zm35.354,95.034h-20.1V111.591a4.145,4.145,0,0,1,4.139-4.141H74.4Zm23.326,0h-20.1V107.45H93.578a4.145,4.145,0,0,1,4.142,4.141Zm12.022,0h-8.795V111.585a7.376,7.376,0,0,0-7.37-7.363H58.431a7.378,7.378,0,0,0-7.367,7.37v36.081h-8.8V17.73h67.476ZM111.357,14.5H34.537L42.98,8.527l7.487-5.3h51.085l7.484,5.3,8.443,5.975h-6.12Zm31.778,133.17H112.972v-91.8h30.164Zm5.646-95.034H112.97V17.73h22.657a13.173,13.173,0,0,1,13.158,13.16V52.638Z" transform="translate(0 0)" fill="#7c4d25"/>
  <path id="Path_681" data-name="Path 681" d="M168.058,200.438h8.8V164.357a7.378,7.378,0,0,1,7.367-7.37h35.147a7.376,7.376,0,0,1,7.37,7.363v36.088h8.795V70.5H168.058ZM214.609,77.964h4.76a7.375,7.375,0,0,1,7.37,7.363v22.026a1.616,1.616,0,0,1-1.613,1.616H208.855a1.616,1.616,0,0,1-1.614-1.616V85.332A7.376,7.376,0,0,1,214.609,77.964Zm0,37.415h4.76a7.376,7.376,0,0,1,7.37,7.363V144.77a1.613,1.613,0,0,1-1.613,1.613H208.855a1.615,1.615,0,0,1-1.615-1.613V122.754a7.378,7.378,0,0,1,7.368-7.372ZM176.855,85.332a7.374,7.374,0,0,1,7.367-7.368h4.766a7.374,7.374,0,0,1,7.367,7.366v22.024a1.616,1.616,0,0,1-1.614,1.616H178.469a1.616,1.616,0,0,1-1.615-1.616Zm0,37.417a7.375,7.375,0,0,1,7.367-7.367h4.766a7.375,7.375,0,0,1,7.367,7.367V144.77a1.614,1.614,0,0,1-1.614,1.613H178.469a1.615,1.615,0,0,1-1.615-1.613Z" transform="translate(-125.791 -52.766)" fill="#e9bda0"/>
  <path id="Path_682" data-name="Path 682" d="M56,107.56v13.889a1.613,1.613,0,0,0,1.613,1.612H73.888a1.613,1.613,0,0,0,1.613-1.612V107.56a7.374,7.374,0,0,0-7.366-7.368H63.368A7.372,7.372,0,0,0,56,107.56Zm3.226,0a4.147,4.147,0,0,1,4.129-4.139h4.786a4.145,4.145,0,0,1,4.129,4.133v12.282H67.364V107.56a1.613,1.613,0,1,0-3.226,0v12.273H59.23Z" transform="translate(-41.919 -74.993)" fill="#7c4d25"/>
  <path id="Path_683" data-name="Path 683" d="M482.029,100.191h-4.767a7.372,7.372,0,0,0-7.366,7.366v13.891a1.612,1.612,0,0,0,1.612,1.612h16.274a1.613,1.613,0,0,0,1.616-1.612V107.56A7.372,7.372,0,0,0,482.029,100.191Zm4.138,7.366V119.83h-4.91V107.56a1.614,1.614,0,0,0-3.228,0v12.273h-4.908V107.55a4.146,4.146,0,0,1,4.13-4.133h4.785A4.146,4.146,0,0,1,486.167,107.557Z" transform="translate(-351.717 -74.993)" fill="#7c4d25"/>
  <path id="Path_684" data-name="Path 684" d="M57.617,271.83H73.888a1.615,1.615,0,0,0,1.613-1.615V256.329a7.378,7.378,0,0,0-7.366-7.37H63.368A7.376,7.376,0,0,0,56,256.329v13.886a1.614,1.614,0,0,0,1.613,1.615Zm1.613-15.5a4.147,4.147,0,0,1,4.129-4.14h4.786a4.143,4.143,0,0,1,4.129,4.136V268.6H67.364V256.329a1.613,1.613,0,0,0-3.226,0V268.6H59.23Z" transform="translate(-41.919 -186.346)" fill="#7c4d25"/>
  <path id="Path_685" data-name="Path 685" d="M471.508,271.83h16.274a1.614,1.614,0,0,0,1.616-1.615V256.329a7.376,7.376,0,0,0-7.365-7.37h-4.771a7.376,7.376,0,0,0-7.366,7.37v13.886A1.615,1.615,0,0,0,471.508,271.83Zm1.613-15.5a4.147,4.147,0,0,1,4.13-4.14h4.785a4.147,4.147,0,0,1,4.13,4.14V268.6h-4.91V256.329a1.614,1.614,0,0,0-3.228,0V268.6h-4.908Z" transform="translate(-351.717 -186.346)" fill="#7c4d25"/>
  <path id="Path_686" data-name="Path 686" d="M323.847,129.581a1.616,1.616,0,0,0,1.614,1.616h16.271a1.616,1.616,0,0,0,1.613-1.616V107.557a7.375,7.375,0,0,0-7.37-7.366h-4.76a7.376,7.376,0,0,0-7.371,7.366v22.024Zm3.226-22.033a4.147,4.147,0,0,1,4.13-4.13h4.782a4.146,4.146,0,0,1,4.132,4.142v20.408h-4.91V107.949a1.613,1.613,0,1,0-3.226,0v20.018h-4.908Z" transform="translate(-242.398 -74.993)" fill="#7c4d25"/>
  <path id="Path_687" data-name="Path 687" d="M204.651,131.2h16.271a1.616,1.616,0,0,0,1.614-1.616V107.56a7.374,7.374,0,0,0-7.367-7.368H210.4a7.374,7.374,0,0,0-7.367,7.366v22.024a1.616,1.616,0,0,0,1.614,1.616Zm1.613-23.639a4.147,4.147,0,0,1,4.13-4.142h4.785a4.146,4.146,0,0,1,4.13,4.132v20.418H214.4V107.949a1.613,1.613,0,1,0-3.226,0v20.018h-4.91Z" transform="translate(-151.973 -74.993)" fill="#7c4d25"/>
  <path id="Path_688" data-name="Path 688" d="M323.847,278.358a1.614,1.614,0,0,0,1.615,1.613h16.271a1.613,1.613,0,0,0,1.613-1.613V256.333a7.376,7.376,0,0,0-7.37-7.363h-4.76a7.378,7.378,0,0,0-7.371,7.367v22.021Zm3.226-22.037a4.149,4.149,0,0,1,4.13-4.126h4.782a4.149,4.149,0,0,1,4.132,4.142v20.408h-4.91V256.728a1.613,1.613,0,1,0-3.226,0v20.017h-4.908Z" transform="translate(-242.397 -186.354)" fill="#7c4d25"/>
  <path id="Path_689" data-name="Path 689" d="M204.651,279.971h16.271a1.615,1.615,0,0,0,1.615-1.613V256.337a7.375,7.375,0,0,0-7.367-7.367H210.4a7.375,7.375,0,0,0-7.367,7.367v22.021A1.615,1.615,0,0,0,204.651,279.971Zm1.614-23.634a4.149,4.149,0,0,1,4.13-4.142h4.785a4.146,4.146,0,0,1,4.13,4.134v20.416H214.4V256.728a1.613,1.613,0,1,0-3.226,0v20.017h-4.91Z" transform="translate(-151.973 -186.354)" fill="#7c4d25"/>
  <path id="Path_690" data-name="Path 690" d="M57.617,382.061H73.888a1.613,1.613,0,0,0,1.613-1.612V366.561a7.372,7.372,0,0,0-7.366-7.366H63.368A7.371,7.371,0,0,0,56,366.561v13.888a1.613,1.613,0,0,0,1.613,1.612Zm1.613-15.5a4.143,4.143,0,0,1,4.127-4.139h4.792a4.145,4.145,0,0,1,4.127,4.134v12.281H67.364V366.561a1.613,1.613,0,0,0-3.226,0v12.273H59.23Z" transform="translate(-41.919 -268.858)" fill="#7c4d25"/>
  <path id="Path_691" data-name="Path 691" d="M471.52,382.061h16.274a1.612,1.612,0,0,0,1.616-1.612V366.561a7.371,7.371,0,0,0-7.365-7.366h-4.767a7.371,7.371,0,0,0-7.366,7.366v13.888A1.613,1.613,0,0,0,471.52,382.061Zm1.613-15.5a4.145,4.145,0,0,1,4.129-4.139h4.79a4.145,4.145,0,0,1,4.126,4.139v12.274h-4.91V366.561a1.615,1.615,0,0,0-3.228,0v12.272h-4.908Z" transform="translate(-351.729 -268.858)" fill="#7c4d25"/>
  <path id="Path_692" data-name="Path 692" d="M57.617,492.281H73.888a1.615,1.615,0,0,0,1.613-1.613v-13.89a7.374,7.374,0,0,0-7.366-7.367H63.368A7.372,7.372,0,0,0,56,476.778v13.886a1.614,1.614,0,0,0,1.613,1.617Zm1.613-15.509a4.143,4.143,0,0,1,4.127-4.137h4.792a4.146,4.146,0,0,1,4.127,4.136v12.279H67.364V476.778a1.613,1.613,0,0,0-3.226,0v12.273H59.23Z" transform="translate(-41.919 -351.354)" fill="#7c4d25"/>
  <path id="Path_693" data-name="Path 693" d="M471.52,492.281h16.274a1.613,1.613,0,0,0,1.616-1.617V476.778a7.372,7.372,0,0,0-7.365-7.367h-4.767a7.372,7.372,0,0,0-7.366,7.367v13.886A1.614,1.614,0,0,0,471.52,492.281Zm1.613-15.509a4.145,4.145,0,0,1,4.129-4.137h4.79a4.145,4.145,0,0,1,4.126,4.137V489.05h-4.91V476.778a1.615,1.615,0,1,0-3.228,0V489.05h-4.908Z" transform="translate(-351.729 -351.354)" fill="#7c4d25"/>
  <path id="Path_694" data-name="Path 694" d="M35.268,222.14h30.17v3H35.268Z" transform="translate(-26.398 -166.272)" fill="#e9bda0"/>
  <path id="Path_695" data-name="Path 695" d="M449.187,222.14h30.169v3H449.187Z" transform="translate(-336.216 -166.272)" fill="#e9bda0"/>
</svg>
