<svg xmlns="http://www.w3.org/2000/svg" width="940" height="232.581" viewBox="0 0 940 232.581">
  <g id="titulo" transform="translate(-230 -97.419)">
    <rect id="Rectangle_3" data-name="Rectangle 3" width="363" height="230" transform="translate(519 97.419)" fill="#fffccc"/>
    <text id="E-CO_AB" data-name="E-CO AB" transform="translate(230 212)" fill="#3d2007" font-size="80" font-family="Metropolis-Regular, Metropolis" letter-spacing="0.05em"><tspan x="289.48" y="64">E-CO AB</tspan></text>
    <g id="vetor-titulo" transform="translate(582.898 97.96)">
      <path id="Path_630" data-name="Path 630" d="M150.756,11.648a19.374,19.374,0,0,0-6.512,2.7l-1.575,1.085-2.556-.875a16.708,16.708,0,0,0-17.61,4.376,15.2,15.2,0,0,0-4.411,12.113l.105,3.221-2.241.455a15.219,15.219,0,0,0-7.947,4.306,16.355,16.355,0,0,0-4.306,17.54l.7,2.031-1.61,1.821A20.811,20.811,0,0,0,98.346,69.7c-1.786,10.433,6.442,20.621,17.05,21.146l2.1.105.035,2.626a18.492,18.492,0,0,0,9.838,16.035,17.953,17.953,0,0,0,19.221-1.54l2.241-1.575v35.5c0,32.594.035,35.57.6,35.99.455.385,3.186.525,13.654.6l13.059.105v-4.936H153.732V105.861l1.751,1.19a17.114,17.114,0,0,0,17.925.315,17.4,17.4,0,0,0,7.632-10.538l.385-1.68,2.381-.105a16.649,16.649,0,0,0,14.179-9.208,16.944,16.944,0,0,0,.56-13.9l-.7-1.54,1.961-2.136a16.534,16.534,0,0,0,0-22.932,17.291,17.291,0,0,0-9.173-5.041l-2.171-.385-.42-2.591a18.028,18.028,0,0,0-8.157-12.148c-2.1-1.19-6.932-2.451-8.682-2.206l-1.3.175-1.12-2.241a16.5,16.5,0,0,0-14.109-9.383,16.79,16.79,0,0,0-3.921.14Zm6.372,5.076a11.866,11.866,0,0,1,8.017,8.192c.875,3.081,1.015,3.151,5.322,3.081,3.466-.07,3.921,0,5.917.945a12.226,12.226,0,0,1,5.987,6.092c.805,1.715.945,2.451.945,5.392,0,2.311.14,3.536.455,3.851a10.051,10.051,0,0,0,3.711.665c3.921.245,6.3,1.225,8.577,3.5a11.89,11.89,0,0,1-1.54,18.1c-2.871,2-2.976,2.451-1.155,5.952,1.4,2.766,1.505,3.151,1.505,5.812a9.2,9.2,0,0,1-.91,4.761,11.7,11.7,0,0,1-8.227,6.862,9.282,9.282,0,0,1-4.551.14c-2.276-.35-2.766-.315-3.466.14-.945.63-1.12,1.12-1.33,4.271-.385,5.076-4.446,9.313-9.908,10.328a11.874,11.874,0,0,1-11.9-5.462l-.84-1.47.07-9.243.105-9.243,7.667-5.322c4.236-2.941,7.807-5.532,7.982-5.777.875-1.435-.28-3.781-1.926-3.781-.42,0-3.466,1.856-6.9,4.236a68.5,68.5,0,0,1-6.652,4.306c-.455.035-.525-1.575-.63-12.184-.07-10.783-.14-12.324-.665-12.884a2.383,2.383,0,0,0-3.256.07c-.63.63-.7,1.155-.7,6.3,0,3.4-.14,5.6-.35,5.6-.175,0-3.956-1.821-8.4-4.026a78.978,78.978,0,0,0-8.928-4.026,3.044,3.044,0,0,0-2.276,2.451c0,1.3,1.505,2.276,10.5,6.652l9.278,4.551V81.739c0,16.21,0,16.21-.805,17.715-.63,1.225-.91,1.435-1.4,1.155-.945-.49-7.912-7.667-9.908-10.188A80.006,80.006,0,0,1,123.1,65.389a83.534,83.534,0,0,1-4.026-23.7V39.341l1.961-.105c1.715-.105,2.1-.245,2.731-1.085l.7-.945-.805-2.381a13.164,13.164,0,0,1,.385-9.7c1.05-2.031,3.921-4.9,5.672-5.6a12.424,12.424,0,0,1,10.783.525,11.924,11.924,0,0,0,2.556,1.05,6.775,6.775,0,0,0,2.1-1.4c3.746-3.221,7.737-4.236,11.973-2.976Z" fill="#3d2007"/>
    </g>
    <text id="Guia_sustentável" data-name="Guia sustentável" transform="translate(530 278)" fill="#a43e00" font-size="36" font-family="Poppins-Italic, Poppins" font-style="italic" letter-spacing="0.05em"><tspan x="0" y="38">Guia sustentável</tspan></text>
  </g>
</svg>
