<svg xmlns="http://www.w3.org/2000/svg" width="123" height="126" viewBox="0 0 123 126">
  <g id="icone-infografico" transform="translate(-702 -16.798)">
    <ellipse id="fundo" cx="61.5" cy="63" rx="61.5" ry="63" transform="translate(702 16.798)" fill="#f8fbee"/>
    <g id="infografico" transform="translate(730 46.798)">
      <path id="Path_711" data-name="Path 711" d="M16,44.411,27.062,24.5" transform="translate(9.889 15.493)" fill="none" stroke="#a43e00" stroke-miterlimit="10" stroke-width="1"/>
      <path id="Path_712" data-name="Path 712" d="M16.989,35h0a2.489,2.489,0,0,0,0,4.978h0a2.489,2.489,0,1,0,0-4.978Z" transform="translate(8.9 22.416)" fill="#a43e00"/>
      <path id="Path_713" data-name="Path 713" d="M36.4,44.411,25.333,24.5" transform="translate(16.042 15.493)" fill="none" stroke="#a43e00" stroke-miterlimit="10" stroke-width="1"/>
      <path id="Path_714" data-name="Path 714" d="M32.989,35h0a2.489,2.489,0,0,1,0,4.978h0a2.489,2.489,0,0,1,0-4.978Z" transform="translate(19.449 22.416)" fill="#a43e00"/>
      <path id="Path_715" data-name="Path 715" d="M24.659,52.119A1.659,1.659,0,0,1,23,50.46V5.659a1.659,1.659,0,1,1,3.319,0v44.8A1.659,1.659,0,0,1,24.659,52.119Z" transform="translate(14.504 1.978)" fill="#a43e00"/>
      <path id="Path_716" data-name="Path 716" d="M9.5,8.5H57.619V41.686H9.5Z" transform="translate(5.604 4.945)" fill="#e9bda0"/>
      <path id="Path_717" data-name="Path 717" d="M57.119,9.659V41.186H10.659V9.659h46.46M58.778,8H9V42.845H58.778Z" transform="translate(5.274 4.615)" fill="#a43e00"/>
      <path id="Path_718" data-name="Path 718" d="M8.5,5.5H59.938v4.978H8.5Z" transform="translate(4.945 2.967)" fill="#e9bda0"/>
      <path id="Path_719" data-name="Path 719" d="M59.438,6.659V9.978H9.659V6.659H59.438M61.1,5H8v6.637H61.1Z" transform="translate(4.615 2.637)" fill="#a43e00"/>
      <path id="Path_720" data-name="Path 720" d="M8,11.637H9.659V44.823h4.707L16.5,19.61l-5.185-1.336V13.957L12.4,13.3A9.114,9.114,0,0,0,16.255,5H8Z" transform="translate(4.615 2.637)" fill="#e9bda0"/>
      <path id="Path_721" data-name="Path 721" d="M10.659,15.637V11.32l1.082-.66A9.29,9.29,0,0,0,13.523,9H9V42.186h4.707l2.137-25.213Z" transform="translate(5.274 5.274)" fill="#e9bda0"/>
      <g id="Group_72" data-name="Group 72" transform="translate(4.319 1)">
        <circle id="Ellipse_1" data-name="Ellipse 1" cx="6.637" cy="6.637" r="6.637" transform="translate(0.83 0.83)" fill="#e9bda0"/>
        <path id="Path_722" data-name="Path 722" d="M10.467,2.659A5.807,5.807,0,1,1,4.659,8.467a5.814,5.814,0,0,1,5.807-5.807m0-1.659a7.467,7.467,0,1,0,7.467,7.467A7.467,7.467,0,0,0,10.467,1Z" transform="translate(-3 -1)" fill="#a43e00"/>
      </g>
      <g id="Group_73" data-name="Group 73" transform="translate(1 17.593)">
        <path id="Path_723" data-name="Path 723" d="M6.478,56.3V38.535L1.5,33.557V20.626A9.136,9.136,0,0,1,10.626,11.5H35.515a2.489,2.489,0,1,1,0,4.978H18.159L14.841,56.3Z" transform="translate(-0.67 -10.67)" fill="#e9bda0"/>
        <path id="Path_724" data-name="Path 724" d="M35.845,12.659a1.659,1.659,0,1,1,0,3.319H17.726L17.6,17.5,14.407,55.8H7.637V38.521l-.486-.486L2.659,33.543V20.956a8.306,8.306,0,0,1,8.3-8.3H35.845m0-1.659H10.956A9.956,9.956,0,0,0,1,20.956V34.23l4.978,4.978V57.46h9.956l3.319-39.823H35.845a3.319,3.319,0,1,0,0-6.637Z" transform="translate(-1 -11)" fill="#a43e00"/>
      </g>
    </g>
  </g>
</svg>
