<svg xmlns="http://www.w3.org/2000/svg" width="112.078" height="123.4" viewBox="0 0 112.078 123.4">
  <g id="icone-praticas" transform="translate(0.004 0.003)">
    <path id="Path_236" data-name="Path 236" d="M70.467,49.362a5.615,5.615,0,0,0,1.645-3.974V28.035a1.06,1.06,0,0,0-.011-.112,4.615,4.615,0,0,0-7.415-3.457,4.607,4.607,0,0,0-6.72-1.365,4.667,4.667,0,0,0-4.033-2.454,4.443,4.443,0,0,0-2.145.562V10.137a4.629,4.629,0,0,0-9.258,0V34.186a1.3,1.3,0,0,1-1.308,1.289,1.274,1.274,0,0,1-.931-.4l-.013-.013a.076.076,0,0,1-.015-.017l-3.8-3.736a4.628,4.628,0,1,0-6.544,6.545L42.851,50.8a4.3,4.3,0,0,0,3.782,6.347H67.941a4.3,4.3,0,0,0,2.526-7.78ZM31.671,36.1a2.145,2.145,0,0,1,3.041-3.027l3.809,3.744.012.01a3.784,3.784,0,0,0,6.481-2.638V10.137a2.146,2.146,0,0,1,4.292,0V28.229a1.241,1.241,0,0,0,2.482,0V25.387a2.148,2.148,0,1,1,4.29,0v3.838a1.243,1.243,0,0,0,2.485,0v-2.4a2.145,2.145,0,1,1,4.29,0v3.839a1.243,1.243,0,0,0,2.485,0V28.141a2.145,2.145,0,1,1,4.29.006V45.388a3.153,3.153,0,0,1-3.15,3.149H46.633a4.279,4.279,0,0,0-2.02.507Zm36.27,18.556H46.633a1.819,1.819,0,0,1,0-3.637H67.941a1.819,1.819,0,1,1,0,3.637Z" fill="#a43e00"/>
    <path id="Path_237" data-name="Path 237" d="M69.628,28.147V45.388a3.153,3.153,0,0,1-3.15,3.149H46.633a4.279,4.279,0,0,0-2.02.507L31.671,36.1a2.145,2.145,0,0,1,3.041-3.027l3.809,3.744.012.01a3.784,3.784,0,0,0,6.481-2.638V10.137a2.146,2.146,0,0,1,4.292,0V28.229a1.241,1.241,0,0,0,2.482,0V25.387a2.148,2.148,0,1,1,4.29,0v3.838a1.243,1.243,0,0,0,2.485,0v-2.4a2.145,2.145,0,1,1,4.29,0v3.839a1.243,1.243,0,0,0,2.485,0V28.141a2.145,2.145,0,1,1,4.29.006Z" fill="#e9bda0"/>
    <path id="Path_238" data-name="Path 238" d="M43.731,3.562a1.242,1.242,0,1,0,2.335-.85L45.376.818a1.243,1.243,0,1,0-2.336.849Z" fill="#a43e00"/>
    <path id="Path_239" data-name="Path 239" d="M39.064,6.113,40.81,7.122a1.242,1.242,0,0,0,1.242-2.151L40.307,3.962a1.242,1.242,0,1,0-1.243,2.151Z" fill="#a43e00"/>
    <path id="Path_240" data-name="Path 240" d="M38.658,12.093a1.243,1.243,0,0,0,.218-.019l1.986-.35a1.242,1.242,0,1,0-.431-2.446l-1.986.349a1.242,1.242,0,0,0,.213,2.466Z" fill="#a43e00"/>
    <path id="Path_241" data-name="Path 241" d="M52.449,10.286a1.242,1.242,0,0,0,1.009,1.438l1.986.35a1.218,1.218,0,0,0,.215.019,1.243,1.243,0,0,0,.215-2.466l-1.986-.349a1.243,1.243,0,0,0-1.439,1.008Z" fill="#a43e00"/>
    <path id="Path_242" data-name="Path 242" d="M52.889,7.288a1.242,1.242,0,0,0,.619-.166l1.746-1.008a1.242,1.242,0,1,0-1.242-2.152L52.267,4.97a1.242,1.242,0,0,0,.622,2.318Z" fill="#a43e00"/>
    <path id="Path_243" data-name="Path 243" d="M49,4.3a1.22,1.22,0,0,0,.426.076,1.247,1.247,0,0,0,1.167-.818l.689-1.894a1.242,1.242,0,1,0-2.334-.85l-.689,1.9A1.24,1.24,0,0,0,49,4.3Z" fill="#a43e00"/>
    <path id="Path_244" data-name="Path 244" d="M46.531,57.9a1.243,1.243,0,0,0-1.242,1.242v63.014a1.243,1.243,0,0,0,2.485,0V59.141A1.242,1.242,0,0,0,46.531,57.9Z" fill="#a43e00"/>
    <path id="Path_245" data-name="Path 245" d="M68.045,57.9A1.241,1.241,0,0,0,66.8,59.141v63.014a1.242,1.242,0,0,0,2.483,0V59.141A1.241,1.241,0,0,0,68.045,57.9Z" fill="#a43e00"/>
    <path id="Path_246" data-name="Path 246" d="M38.957,78.272a5.283,5.283,0,0,0,1.48-3.661V58.578a.618.618,0,0,0-.014-.1,4.36,4.36,0,0,0-6.917-3.334,4.357,4.357,0,0,0-6.212-1.26,4.4,4.4,0,0,0-3.753-2.225,4.179,4.179,0,0,0-1.887.462V42.037a4.373,4.373,0,1,0-8.746,0V64.263a1.107,1.107,0,0,1-1.115,1.094A1.089,1.089,0,0,1,11,65.02c-.005-.006-.012-.01-.017-.015l-.01-.012L7.46,61.539a4.372,4.372,0,1,0-6.183,6.183L13.185,79.629a4.026,4.026,0,0,0-.46,1.87A4.076,4.076,0,0,0,16.8,85.571H36.486a4.066,4.066,0,0,0,2.471-7.3ZM3.033,65.966A1.889,1.889,0,0,1,5.711,63.3l3.521,3.46.017.015a3.591,3.591,0,0,0,6.143-2.515V42.037a1.889,1.889,0,1,1,3.777,0V58.754a1.243,1.243,0,0,0,2.485,0v-2.63a1.89,1.89,0,1,1,3.774,0v3.55a1.242,1.242,0,1,0,2.484,0V57.451a1.889,1.889,0,0,1,3.777,0V61a1.242,1.242,0,1,0,2.484,0V58.665a1.89,1.89,0,0,1,3.779.016v15.93a2.821,2.821,0,0,1-2.817,2.818H16.8a4.026,4.026,0,0,0-1.851.449ZM36.486,83.087H16.8a1.588,1.588,0,0,1,0-3.175H36.486a1.588,1.588,0,1,1,0,3.175Z" fill="#a43e00"/>
    <path id="Path_247" data-name="Path 247" d="M37.952,58.681v15.93a2.821,2.821,0,0,1-2.817,2.818H16.8a4.026,4.026,0,0,0-1.851.449L3.033,65.966A1.889,1.889,0,0,1,5.711,63.3l3.521,3.46.017.015a3.591,3.591,0,0,0,6.143-2.515V42.037a1.889,1.889,0,1,1,3.777,0V58.755a1.243,1.243,0,0,0,2.485,0V56.124a1.89,1.89,0,1,1,3.774,0v3.55a1.242,1.242,0,1,0,2.484,0V57.451a1.889,1.889,0,0,1,3.777,0V61a1.242,1.242,0,1,0,2.484,0V58.665a1.89,1.89,0,0,1,3.779.016Z" fill="#e9bda0"/>
    <path id="Path_248" data-name="Path 248" d="M16.7,86.082a1.242,1.242,0,0,0-1.242,1.243v34.83a1.243,1.243,0,0,0,2.485,0V87.325A1.242,1.242,0,0,0,16.7,86.082Z" fill="#a43e00"/>
    <path id="Path_249" data-name="Path 249" d="M36.581,86.082a1.243,1.243,0,0,0-1.242,1.243v34.83a1.242,1.242,0,1,0,2.484,0V87.325a1.241,1.241,0,0,0-1.242-1.243Z" fill="#a43e00"/>
    <path id="Path_250" data-name="Path 250" d="M110.473,78.272a5.288,5.288,0,0,0,1.475-3.661V58.578c0-.035-.008-.069-.01-.1a4.361,4.361,0,0,0-6.919-3.334,4.357,4.357,0,0,0-6.212-1.26,4.4,4.4,0,0,0-3.754-2.225,4.188,4.188,0,0,0-1.887.462V42.037a4.373,4.373,0,0,0-8.746,0V64.263a1.091,1.091,0,0,1-.325.774,1.126,1.126,0,0,1-.791.32,1.081,1.081,0,0,1-.791-.337c-.006-.006-.014-.01-.017-.015s-.006-.011-.011-.012l-3.512-3.454a4.372,4.372,0,0,0-6.184,6.183L84.7,79.629a4.065,4.065,0,0,0,3.612,5.942H108a4.067,4.067,0,0,0,2.475-7.3ZM74.546,65.966A1.889,1.889,0,1,1,77.223,63.3l3.521,3.46c0,.006.012.007.017.015A3.591,3.591,0,0,0,86.9,64.26V42.037a1.888,1.888,0,0,1,3.776,0V58.754a1.243,1.243,0,0,0,2.485,0V56.129a1.891,1.891,0,1,1,3.777,0v3.55a1.242,1.242,0,1,0,2.484,0V57.445a1.889,1.889,0,1,1,3.778.01V61a1.242,1.242,0,0,0,2.483,0V58.661a1.888,1.888,0,0,1,3.775.02v15.93a2.821,2.821,0,0,1-2.815,2.818H88.31a4.043,4.043,0,0,0-1.852.449ZM108,83.087H88.309a1.588,1.588,0,1,1,0-3.175H108a1.588,1.588,0,1,1,0,3.175Z" fill="#a43e00"/>
    <path id="Path_251" data-name="Path 251" d="M109.462,58.681v15.93a2.82,2.82,0,0,1-2.814,2.818H88.309a4.039,4.039,0,0,0-1.851.449L74.546,65.966A1.889,1.889,0,1,1,77.223,63.3l3.521,3.46c0,.006.012.008.017.016A3.592,3.592,0,0,0,86.9,64.26V42.037a1.888,1.888,0,0,1,3.776,0V58.754a1.243,1.243,0,0,0,2.485,0V56.129a1.891,1.891,0,1,1,3.777,0v3.55a1.242,1.242,0,1,0,2.484,0V57.445a1.889,1.889,0,1,1,3.778.01V61a1.242,1.242,0,0,0,2.483,0V58.661a1.887,1.887,0,1,1,3.774.02Z" fill="#e9bda0"/>
    <path id="Path_252" data-name="Path 252" d="M88.213,86.082a1.242,1.242,0,0,0-1.242,1.243v34.83a1.242,1.242,0,0,0,2.483,0V87.325a1.241,1.241,0,0,0-1.241-1.243Z" fill="#a43e00"/>
    <path id="Path_253" data-name="Path 253" d="M108.1,86.082a1.241,1.241,0,0,0-1.242,1.243v34.83a1.242,1.242,0,0,0,2.483,0V87.325a1.241,1.241,0,0,0-1.241-1.243Z" fill="#a43e00"/>
    <path id="Path_254" data-name="Path 254" d="M17.943,87.325h3.189v34.739H17.943Z" fill="#e9bda0"/>
    <path id="Path_255" data-name="Path 255" d="M89.454,87.369h3.718v34.74H89.454Z" fill="#e9bda0"/>
    <path id="Path_256" data-name="Path 256" d="M47.774,59.013h4.037v63.051H47.774Z" fill="#e9bda0"/>
  </g>
</svg>
